<?xml version="1.0" encoding="UTF-8" standalone="no"?>
<!-- Created with Inkscape (http://www.inkscape.org/) -->

<svg
   width="283.46506mm"
   height="41.132042mm"
   viewBox="0 0 283.46506 41.132042"
   version="1.1"
   id="svg5"
   inkscape:version="1.1.2 (b8e25be833, 2022-02-05)"
   sodipodi:docname="ricochet_title.svg"
   inkscape:export-filename="C:\Users\mrain\Documents\Projects\Godot\Ricochet\assets\images\ricochet_title.png"
   inkscape:export-xdpi="96"
   inkscape:export-ydpi="96"
   xmlns:inkscape="http://www.inkscape.org/namespaces/inkscape"
   xmlns:sodipodi="http://sodipodi.sourceforge.net/DTD/sodipodi-0.dtd"
   xmlns="http://www.w3.org/2000/svg"
   xmlns:svg="http://www.w3.org/2000/svg">
  <sodipodi:namedview
     id="namedview7"
     pagecolor="#505050"
     bordercolor="#ffffff"
     borderopacity="1"
     inkscape:pageshadow="0"
     inkscape:pageopacity="0"
     inkscape:pagecheckerboard="1"
     inkscape:document-units="mm"
     showgrid="false"
     inkscape:zoom="2.9611953"
     inkscape:cx="265.2645"
     inkscape:cy="63.825578"
     inkscape:window-width="1920"
     inkscape:window-height="1017"
     inkscape:window-x="-8"
     inkscape:window-y="-8"
     inkscape:window-maximized="1"
     inkscape:current-layer="layer1" />
  <defs
     id="defs2" />
  <g
     inkscape:label="Layer 1"
     inkscape:groupmode="layer"
     id="layer1"
     transform="translate(-112.48736,-91.035559)">
    <g
       aria-label="R  COCHET"
       id="text2508"
       style="font-size:10.5833px;line-height:1.25;font-family:'Know Your Product';-inkscape-font-specification:'Know Your Product';fill:#ffffff;stroke-width:0.264583"
       transform="matrix(4.581135,0,0,4.581135,-402.83238,-326.01062)">
      <path
         d="m 112.95246,91.989204 q -0.29972,0.382404 -0.39791,0.666623 0.0982,0.547769 0.0672,0.930173 v 0.465087 q -0.0672,0.780311 0,1.32808 l -0.0672,0.263549 q -0.0155,0.682126 0,1.13171 l -0.0672,0.134358 q 0.0982,0.465087 0.0672,0.795815 -0.11885,1.13171 0,1.860345 0.34623,0.149862 0.59945,0.201538 0.74413,-0.232543 1.32808,-0.201538 0.26355,-0.06718 0.33072,-0.330728 l 0.0672,-0.330728 q -0.0982,-0.382404 -0.13435,-0.733803 l -0.0672,-0.263549 q 0.0827,-0.532265 0.0672,-0.930173 v -0.201537 l -0.0672,-0.862994 0.0672,-0.134358 q -0.0672,-0.449584 0,-0.795815 v -0.532265 -0.201538 -0.862993 q 0.14986,-0.532266 0.13435,-0.930173 -0.13435,-0.21704 -0.20153,-0.397907 l -0.19637,-0.06718 q -0.88367,0.09818 -1.52962,0 z m 2.79052,0 q -0.99735,0.84749 -0.0672,1.927524 0.86816,0.03101 1.39526,0.201538 -0.062,1.245398 -1.2609,0.992184 -0.0672,0.149861 -0.20154,0.201538 l -0.062,0.465086 v 0.201537 q -0.18604,0.48059 -0.13436,0.997352 0.23254,0.361734 0.46509,0.594277 0.3824,0.418578 0.53226,0.800983 0.64595,0.532265 0.93017,1.193721 0.51677,0.201538 1.06454,0.06718 0.7648,0.382406 1.2609,-0.201538 -0.11886,-0.428913 -0.26355,-0.728635 -0.26872,-0.248046 -0.40308,-0.465087 -0.894,-0.614947 -1.19372,-1.529617 0.3824,-0.248046 0.79581,-0.263549 0.98185,-1.379756 0.73381,-2.857698 l -0.13436,-0.134358 q -0.3824,-0.733803 -0.79581,-1.13171 l -0.80099,-0.19637 -0.19637,-0.06718 -0.20153,0.06718 -0.13436,-0.06718 z"
         id="path16271" />
      <path
         d="m 129.60772,91.937527 q -1.4366,1.653641 1.02319,3.141917 h 0.40824 q 0.56327,-0.41341 1.16272,-0.41341 0.18603,-0.764809 0.0672,-1.364253 l -0.20671,-0.06718 -0.0672,-0.206705 -0.13436,-0.06718 -0.13952,-0.134358 q -0.56327,-0.428913 -0.88883,-0.754473 -0.69763,0.02067 -1.22473,-0.134358 z m -1.57096,0.134359 q -3.85505,1.369421 -3.00239,4.914413 0.69763,2.304761 2.93521,2.800853 0.32556,-0.258381 0.5426,-0.475421 0.24288,-1.436601 -0.95084,-1.844843 l -0.27389,-0.408243 q -0.17053,-0.547768 -0.2067,-0.956011 0.0672,-0.583941 0.2067,-0.95601 1.94303,-1.297075 1.0232,-3.074738 z m 2.59415,4.50617 q -0.35657,0.39274 -0.48059,0.749306 l -0.13436,0.07235 q -0.64595,0.30489 -1.02319,0.614947 -0.25838,2.010201 0.95601,1.498612 1.63814,-0.253214 2.38745,-1.705317 v -0.480589 l -0.34107,-0.268717 q -0.54777,-0.139525 -0.88883,-0.480589 z"
         id="path16273" />
      <path
         d="m 136.82689,91.989204 q -0.37206,0.165364 -0.73897,0.134358 -0.35139,0.201537 -0.66662,0.201537 -2.27892,1.875849 -1.74149,4.4855 0.7028,2.847363 3.41063,2.945548 l 0.40308,-0.268717 q -0.0155,-0.299722 -0.13436,-0.532266 -0.031,-0.506427 -0.13436,-0.806149 l -0.26355,-0.335896 q -1.47794,-0.568439 -1.07486,-2.206577 0.17053,-1.374588 1.40559,-1.74149 0.25322,-1.643305 -0.46509,-1.875848 z m 1.20406,0.134358 -0.13436,1.674311 q 1.50378,0.599445 1.53996,2.072218 -0.18604,1.477942 -1.4056,2.010207 -0.10335,0.366902 -0.26871,0.604612 l 0.0672,0.335896 v 0.19637 q 0.16537,0.372069 0.20154,0.671791 0.38241,0 0.66663,-0.06718 0.63561,-0.537433 1.2764,-0.666624 0.29972,-0.222207 0.53227,-0.268716 2.3461,-3.534657 -0.59945,-6.29417 -0.925,-0.351398 -1.60713,-0.403074 z"
         id="path16275" />
      <path
         d="m 147.41019,91.937527 q -1.4366,1.653641 1.02319,3.141917 h 0.40825 q 0.56327,-0.41341 1.16271,-0.41341 0.18604,-0.764809 0.0672,-1.364253 l -0.2067,-0.06718 -0.0672,-0.206705 -0.13436,-0.06718 -0.13953,-0.134358 q -0.56327,-0.428913 -0.88883,-0.754473 -0.69763,0.02067 -1.22473,-0.134358 z m -1.57095,0.134359 q -3.85505,1.369421 -3.0024,4.914413 0.69763,2.304761 2.93522,2.800853 0.32556,-0.258381 0.5426,-0.475421 0.24288,-1.436601 -0.95085,-1.844843 l -0.27388,-0.408243 q -0.17053,-0.547768 -0.20671,-0.956011 0.0672,-0.583941 0.20671,-0.95601 1.94303,-1.297075 1.02319,-3.074738 z m 2.59414,4.50617 q -0.35656,0.39274 -0.48058,0.749306 l -0.13436,0.07235 q -0.64596,0.30489 -1.02319,0.614947 -0.25838,2.010201 0.95601,1.498612 1.63814,-0.253214 2.38744,-1.705317 v -0.480589 l -0.34106,-0.268717 q -0.54777,-0.139525 -0.88883,-0.480589 z"
         id="path16277" />
      <path
         d="m 152.92922,91.937527 q -0.0672,0.113688 -0.13436,0.134359 -0.86299,-0.165364 -1.45727,0.196369 l -0.13436,0.397908 0.0672,0.330728 -0.0672,0.397907 q 0.031,0.103353 0,0.201538 v 0.196369 q 0.0517,0.516763 0,0.862994 l 0.0672,0.201537 v 1.855178 l 0.0672,0.134359 -0.0672,0.397907 q 0.13436,0.945676 -0.0672,1.658808 l 0.26355,0.661456 0.53227,0.201538 q 0.63045,-0.248046 1.19372,-0.134358 0.24804,-0.547769 0.33073,-0.992185 -0.16537,-0.50126 -0.12919,-0.862993 V 97.508229 97.110322 96.779594 96.381686 96.118137 95.389502 95.120785 94.857236 94.655699 94.39215 q -0.0362,-0.09819 0,-0.19637 l -0.0672,-0.532265 v -0.201538 q 0.031,-0.480589 0.12919,-0.795814 l -0.062,-0.397908 q -0.21705,-0.263549 -0.46509,-0.330728 z m 5.63788,0 q -0.79581,0.263549 -1.52445,0.06718 l -0.46509,0.263549 -0.0672,0.201538 v 1.591629 l 0.0672,0.330728 0.0672,1.126543 q -0.0362,0.547768 0.0672,0.997352 l -0.0672,0.196369 v 0.666624 q -0.0827,1.178219 0,1.922357 0.11369,0.06718 0.12919,0.134359 0.26872,0.09819 0.53227,0.06718 h 0.26355 q 0.61495,0.149861 1.06453,0.129191 l 0.26355,-0.330729 0.0672,-0.397907 v -0.33073 q -0.13436,-0.496092 -0.13436,-0.862994 l 0.0672,-0.397907 q -0.0827,-0.811317 0.0672,-1.395259 v -0.19637 q -0.0672,-0.09819 -0.0672,-0.201537 v -0.661457 l -0.0672,-0.201537 0.0672,-0.19637 v -0.201537 -0.527098 q -0.0465,-0.599445 0.0672,-1.064531 -0.13436,-0.444416 -0.39791,-0.728636 z m -4.24779,2.986889 -0.39791,0.330728 q -0.0982,0.930173 0.20154,1.658808 l 1.45727,-0.134358 0.20154,0.06718 q 0.5271,-1.028358 0.19637,-1.922357 -0.8785,0.04651 -1.52445,-0.134359 z"
         id="path16279" />
      <path
         d="m 165.63641,91.937527 q -0.26355,0.129191 -0.52709,0.06718 -0.062,0.07752 -0.1292,0.06201 h -0.19637 -0.19636 l -0.1292,0.06718 h -0.19637 -0.84749 q -1.06453,1.059364 -0.13435,2.1549 h 0.19637 l 0.13435,-0.12919 h 0.19637 l 0.19637,-0.06718 h 0.25838 0.19637 0.26355 1.17305 l 0.26355,-0.258382 q 0.49093,-1.767328 -0.52193,-1.896518 z m -4.1186,0.263549 q -0.68729,-0.09819 -1.17305,0.06201 -0.0982,0.459919 -0.26355,0.7183 l 0.0672,0.39274 -0.0672,0.196369 q 0.0982,0.242879 0.0672,0.521931 l 0.062,3.136749 q -0.19637,1.255733 0,2.1549 1.33841,0.573607 2.22207,-0.32556 0.0155,-0.651121 -0.12919,-1.11104 v -0.32556 -0.19637 q 0.031,-0.604612 -0.0672,-1.043861 v -0.7183 -0.19637 -0.196369 -0.19637 -0.39274 -0.19637 -0.263549 q -0.031,-0.666624 0.0672,-1.105872 v -0.527098 l -0.0672,-0.454751 -0.52193,-0.06718 z m 1.70015,2.609652 q -1.06453,1.82934 0.58911,1.896519 1.76216,0.294555 0.97668,-1.762161 -0.25838,-0.09819 -0.52193,-0.06718 -0.60461,0.04651 -1.04386,-0.06718 z m 2.41845,2.681998 h -0.52709 l -0.19121,0.06201 h -0.26355 -0.19637 -1.30741 q -0.062,0.113687 -0.12919,0.12919 -0.50642,1.193722 0.19637,2.092889 l 0.19637,-0.06718 h 0.25839 l 0.19637,-0.06201 0.19636,-0.06718 0.26355,0.06718 0.19637,-0.06718 h 0.19637 l 1.04386,-0.06718 q 0.74931,-0.175699 0.58911,-0.976681 0.19637,-0.91467 -0.52193,-1.178219 z"
         id="path16281" />
      <path
         d="m 169.1659,91.989204 q -0.68212,0.279051 -1.32808,0.134358 -0.44441,0.676959 -0.33072,1.390091 l 0.20153,0.723468 0.19637,0.06718 q 0.76481,-0.180867 1.52445,-0.06718 0.27906,-1.601964 -0.26355,-2.247917 z m 0.78548,0.186034 -0.10335,0.578774 q 0.1602,0.759641 0.1757,1.286739 l -0.0672,0.19637 q 0,0.547769 -0.0672,0.930173 -0.062,0.723468 -0.062,1.188554 l -0.0672,0.201538 q 0,0.346231 0,0.527098 0.0672,0.961178 -0.13436,1.65364 l 0.20154,0.862994 0.19637,0.12919 0.13436,0.06718 q 0.62528,-0.263549 1.18855,-0.134359 0.38241,-0.04651 0.59945,-0.263549 v -0.397907 l 0.062,-0.263549 -0.062,-0.129191 v -0.201537 l -0.0672,-0.134358 v -0.19637 -0.19637 -0.862994 l 0.0672,-0.12919 q -0.14986,-0.764809 -0.0672,-1.32808 l 0.0672,-0.19637 v -0.661456 -0.19637 q 0.19637,-1.410762 0.062,-2.320265 l -0.19637,-0.12919 q -0.78031,0.12919 -1.45727,-0.06718 z m 2.85253,-0.118855 q -0.13435,0.180867 -0.26355,0.263549 0,0.346231 0.0672,0.527098 -0.10335,0.63045 -0.0672,1.059363 l 0.1292,0.330728 q 0.64595,-0.09819 1.12654,0.06718 0.87849,-0.873329 0.39791,-2.118727 -0.38241,-0.06201 -0.72864,0 H 173.269 Z"
         id="path16283" />
    </g>
    <ellipse
       style="fill:#ffeeaa;stroke:none;stroke-width:1.51452"
       id="path15726"
       cx="-168.91518"
       cy="112.57525"
       rx="1.0853875"
       ry="4.9708066"
       transform="scale(-1,1)" />
    <path
       style="fill:#ffdd55;stroke:none;stroke-width:0.805254;stroke-linecap:butt;stroke-linejoin:miter;stroke-opacity:1"
       d="m 147.64159,132.25695 19.2475,-19.68171 -10.31812,-11.25519 4.43018,0.72242 7.99617,10.70518 -12.72421,16.73944 z"
       id="path14368"
       sodipodi:nodetypes="ccccccc" />
    <path
       id="path14458"
       style="fill:#ffdd55;stroke:none;stroke-width:0.62243"
       d="m 154.66706,99.603692 c 0.56035,0.04894 1.31118,-0.664413 1.7622,-0.981567 0.4126,-0.290138 1.24584,-0.750642 1.40121,-1.236255 0.31264,-0.9758 -0.3319,-1.582799 -1.08854,-2.659066 -1.1332,-1.611473 -3.23816,-2.150103 -4.53052,-1.882549 -0.60889,1.113718 -0.53025,3.58584 0.39727,4.90484 0.92754,1.318993 1.07328,1.769942 2.05838,1.854597 z"
       sodipodi:nodetypes="ssssccs" />
  </g>
</svg>
